<svg version="1.1" xmlns="http://www.w3.org/2000/svg" viewBox="-348.98000099999996 -57.937210191211825 697.9600019999999 114.97549950478489" fill="none" stroke="black" stroke-width="0.6%" vector-effect="non-scaling-stroke">
    <path d="M -320.5 33.91893 A 320.5 22.11936 180 0 0 320.5 33.91893" />
    <path d="M 347.98 -30.92608 A 347.98 24.01589 360 0 1 -347.98 -30.92608" />
    <path d="M -246.05902 -49.90312 A 347.98 24.01589 360 0 1 347.98 -32.92132 A 347.98 24.01589 360 0 1 -347.98 -32.92132 A 347.98 24.01589 360 0 1 -246.05902 -49.90312 Z" />
    <path d="M 226.62772 -17.28057 A 320.5 22.11936 360 0 1 -320.5 -32.92132" />
    <path d="M 320.5 -32.92132 A 320.5 22.11936 360 0 1 226.62772 -17.28057" />
    <path d="M 226.62772 -18.27818 A 320.5 22.11936 360 0 1 -320.5 -33.91893 L -320.5 -32.92132" />
    <path d="M -320.5 -33.91893 A 320.5 22.11936 360 0 1 320.5 -33.91893 L 320.5 -32.92132" />
    <path d="M 320.5 -33.91893 A 320.5 22.11936 360 0 1 226.62772 -18.27818" />
    <path d="M -320.5 -21.57209 L -320.5 33.91893" />
    <path d="M 320.5 -21.57209 L 320.5 33.91893" />
    <path d="M -347.98 -32.92132 L -347.98 -30.92608" />
    <path d="M 347.98 -32.92132 L 347.98 -30.92608" />
</svg>